<svg xmlns="http://www.w3.org/2000/svg" viewBox="0 0 586.6 109.73">

<path class="logo__text" d="M139.69 55.58c0-9.32 3.35-17 10.15-22.75s15.53-8.65 26.36-8.65c13.85 0 24.93 5 31.31 14.27l-8.65 5.88c-5.71-7-13.18-10.32-22.75-10.32-14.77 0-24.51 8.47-24.51 21.48 0 12.85 8.9 20.74 23.09 20.74 9.9 0 17.71-4.45 22.91-12.85h-19.74v-9.31h31.89V85h-9.15V72.87c-5.28 8.64-14.77 13.26-27 13.26-20.82 0-33.91-11.67-33.91-30.55zM232.11 85h-12.76l31.14-59.6h12.09L293.72 85h-13.26l-6.3-12.59H238.4zm11.08-22.2h26.19L256.2 36.61zM290.11 25.36h62.45v10.07h-25.43V85h-11.58V35.43h-25.44V25.36zM418.13 25.36h11.58V85h-11.58V59.69h-41.89V85h-11.58V25.36h11.58v24.26h41.89zM446.17 25.36h60.27v9.82h-48.69v14.44h40.46v9.82h-40.46v15.69h48.69V85h-60.27zM520.12 25.36h43.48c12.84 0 21.24 7.47 21.24 18.72 0 10.83-8.56 18-21.07 18h-1.18l24 22.84h-15.85l-22.41-22.38h-16.62V85h-11.59zm41.13 27.45c7.22 0 11.59-3.36 11.59-8.73 0-5.54-4.37-8.9-11.59-8.9h-29.54v17.63z"></path>

<path class="logo__icon" d="M94.99 82.26v-10L47.41 99.78 8.62 77.38V32.59L56.41 5l-8.55-5L0 27.62v54.74l47.41 27.37z"></path>

<path class="logo__icon" d="M17.24 72.4l30.17 17.42 47.58-27.47v-10L47.41 79.87 25.86 67.43V42.55L73.55 15l-8.57-5-47.74 27.57z"></path>

<path class="logo__icon" d="M90.7 25l-8.57-5-47.65 27.52v14.93l12.93 7.47 47.58-27.47v-10L47.41 60l-4.31-2.49v-5z"></path>

</svg>