<svg width="64" height="64" viewBox="0 0 64 64" fill="none" xmlns="http://www.w3.org/2000/svg">
<g filter="url(#filter0_d)">
<circle cx="32" cy="28" r="24" fill="white"/>
<circle cx="32" cy="28" r="23.5" stroke="#2D93EA"/>
</g>
<path fill-rule="evenodd" clip-rule="evenodd" d="M34.7063 18.4583C34.7015 18.3933 34.6839 18.3298 34.6544 18.2716C34.625 18.2134 34.5844 18.1616 34.5348 18.1192C34.4853 18.0767 34.4279 18.0445 34.3659 18.0243C34.3038 18.0042 34.2384 17.9964 34.1734 18.0016L29.3392 18.0016C29.2058 17.991 29.0736 18.0327 28.9705 18.118C28.8674 18.2032 28.8017 18.3253 28.7873 18.4583V20.0186L34.7063 20.0186V18.4583ZM34.7063 23.0249L28.7873 23.0249V20.8748L34.7063 20.8748V23.0249ZM19.5763 36.2717H43.4428C43.7896 36.2717 44.0708 36.5529 44.0708 36.8996V38.0223C44.0708 38.3691 43.7896 38.6502 43.4428 38.6502H19.5763C19.2294 38.6502 18.9482 38.3691 18.9482 38.0223V36.8996C18.9482 36.5529 19.2294 36.2717 19.5763 36.2717ZM28.7493 23.8814L34.6683 23.8814L34.6683 27.3635H38.0561C38.4177 27.3635 38.6461 27.725 38.4177 27.9914L32.118 35.2219C32.0717 35.2715 32.0157 35.311 31.9535 35.338C31.8913 35.365 31.8242 35.3789 31.7564 35.3789C31.6886 35.3789 31.6215 35.365 31.5593 35.338C31.4971 35.311 31.4411 35.2715 31.3948 35.2219L25.0951 27.9914C25.0434 27.9328 25.0111 27.8597 25.0024 27.7821C24.9937 27.7045 25.0091 27.6261 25.0465 27.5575C25.0839 27.4889 25.1415 27.4335 25.2115 27.3988C25.2815 27.3641 25.3604 27.3518 25.4377 27.3635H28.7493V23.8814Z" fill="#359BF3"/>
<defs>
<filter id="filter0_d" x="0" y="0" width="64" height="64" filterUnits="userSpaceOnUse" color-interpolation-filters="sRGB">
<feFlood flood-opacity="0" result="BackgroundImageFix"/>
<feColorMatrix in="SourceAlpha" type="matrix" values="0 0 0 0 0 0 0 0 0 0 0 0 0 0 0 0 0 0 127 0"/>
<feOffset dy="4"/>
<feGaussianBlur stdDeviation="4"/>
<feColorMatrix type="matrix" values="0 0 0 0 0 0 0 0 0 0 0 0 0 0 0 0 0 0 0.1 0"/>
<feBlend mode="multiply" in2="BackgroundImageFix" result="effect1_dropShadow"/>
<feBlend mode="normal" in="SourceGraphic" in2="effect1_dropShadow" result="shape"/>
</filter>
</defs>
</svg>
