<?xml version="1.0" encoding="utf-8"?>
<!-- Generator: Adobe Illustrator 17.0.0, SVG Export Plug-In . SVG Version: 6.00 Build 0)  -->
<!DOCTYPE svg PUBLIC "-//W3C//DTD SVG 1.1//EN" "http://www.w3.org/Graphics/SVG/1.1/DTD/svg11.dtd">
<svg version="1.1" xmlns="http://www.w3.org/2000/svg" xmlns:xlink="http://www.w3.org/1999/xlink" x="0px" y="0px" width="765px"
	 height="212px" viewBox="0 0 765 212" enable-background="new 0 0 765 212" xml:space="preserve">
<g id="Layer_1">
	<g>
		<path fill="#07446B" d="M225.868,100.507c0-9.317,3.357-16.955,10.156-22.747c6.8-5.792,15.529-8.646,26.357-8.646
			c13.85,0,24.93,5.036,31.309,14.27l-8.646,5.875c-5.708-6.967-13.179-10.324-22.747-10.324c-14.773,0-24.511,8.478-24.511,21.488
			c0,12.843,8.897,20.733,23.083,20.733c9.905,0,17.712-4.449,22.916-12.843h-19.726v-9.317h31.896v30.89h-9.149v-12.088
			c-5.288,8.646-14.773,13.263-27.028,13.263C238.963,131.061,225.868,119.394,225.868,100.507z"/>
		<path fill="#07446B" d="M318.29,129.886h-12.758l31.141-59.597h12.087l31.142,59.597h-13.263l-6.295-12.591h-35.758
			L318.29,129.886z M329.37,107.726h26.189l-13.179-26.188L329.37,107.726z"/>
		<path fill="#07446B" d="M376.297,70.289h62.45v10.072h-25.434v49.524H401.73V80.362h-25.434V70.289z"/>
		<path fill="#07446B" d="M504.309,70.289h11.583v59.597h-11.583V104.62h-41.886v25.266H450.84V70.289h11.583v24.258h41.886V70.289z
			"/>
		<path fill="#07446B" d="M532.35,70.289h60.268v9.821h-48.685v14.437h40.459v9.821h-40.459v15.696h48.685v9.821H532.35V70.289z"/>
		<path fill="#07446B" d="M606.305,70.289h43.479c12.843,0,21.236,7.471,21.236,18.719c0,10.828-8.562,18.046-21.068,18.046h-1.175
			l24.006,22.832h-15.864l-22.411-22.412h-16.62v22.412h-11.583V70.289z M647.435,97.738c7.219,0,11.583-3.357,11.583-8.729
			c0-5.54-4.364-8.897-11.583-8.897h-29.547v17.627H647.435z"/>
	</g>
	<g>
		<path fill="#FFFFFF" d="M225.868,369.083c0-9.317,3.357-16.955,10.156-22.747c6.8-5.792,15.529-8.646,26.357-8.646
			c13.85,0,24.93,5.036,31.309,14.27l-8.646,5.875c-5.708-6.967-13.179-10.324-22.747-10.324c-14.773,0-24.511,8.478-24.511,21.488
			c0,12.843,8.897,20.733,23.083,20.733c9.905,0,17.712-4.449,22.916-12.843h-19.726v-9.317h31.896v30.89h-9.149v-12.088
			c-5.288,8.646-14.773,13.263-27.028,13.263C238.963,399.636,225.868,387.969,225.868,369.083z"/>
		<path fill="#FFFFFF" d="M318.29,398.462h-12.758l31.141-59.597h12.087l31.142,59.597h-13.263l-6.295-12.591h-35.758
			L318.29,398.462z M329.37,376.301h26.189l-13.179-26.188L329.37,376.301z"/>
		<path fill="#FFFFFF" d="M376.297,338.865h62.45v10.072h-25.434v49.524H401.73v-49.524h-25.434V338.865z"/>
		<path fill="#FFFFFF" d="M504.309,338.865h11.583v59.597h-11.583v-25.266h-41.886v25.266H450.84v-59.597h11.583v24.258h41.886
			V338.865z"/>
		<path fill="#FFFFFF" d="M532.35,338.865h60.268v9.821h-48.685v14.437h40.459v9.821h-40.459v15.696h48.685v9.821H532.35V338.865z"
			/>
		<path fill="#FFFFFF" d="M606.305,338.865h43.479c12.843,0,21.236,7.471,21.236,18.719c0,10.828-8.562,18.046-21.068,18.046h-1.175
			l24.006,22.832h-15.864l-22.411-22.412h-16.62v22.412h-11.583V338.865z M647.435,366.313c7.219,0,11.583-3.357,11.583-8.729
			c0-5.54-4.364-8.897-11.583-8.897h-29.547v17.627H647.435z"/>
	</g>
	<g>
		<path d="M225.868,641.083c0-9.317,3.357-16.955,10.156-22.747c6.8-5.792,15.529-8.646,26.357-8.646
			c13.85,0,24.93,5.036,31.309,14.27l-8.646,5.875c-5.708-6.967-13.179-10.324-22.747-10.324c-14.773,0-24.511,8.478-24.511,21.488
			c0,12.843,8.897,20.733,23.083,20.733c9.905,0,17.712-4.449,22.916-12.843h-19.726v-9.317h31.896v30.89h-9.149v-12.088
			c-5.288,8.646-14.773,13.263-27.028,13.263C238.963,671.636,225.868,659.969,225.868,641.083z"/>
		<path d="M318.29,670.462h-12.758l31.141-59.597h12.087l31.142,59.597h-13.263l-6.295-12.591h-35.758L318.29,670.462z
			 M329.37,648.301h26.189l-13.179-26.188L329.37,648.301z"/>
		<path d="M376.297,610.865h62.45v10.072h-25.434v49.524H401.73v-49.524h-25.434V610.865z"/>
		<path d="M504.309,610.865h11.583v59.597h-11.583v-25.266h-41.886v25.266H450.84v-59.597h11.583v24.258h41.886V610.865z"/>
		<path d="M532.35,610.865h60.268v9.821h-48.685v14.437h40.459v9.821h-40.459v15.696h48.685v9.821H532.35V610.865z"/>
		<path d="M606.305,610.865h43.479c12.843,0,21.236,7.471,21.236,18.719c0,10.828-8.562,18.046-21.068,18.046h-1.175l24.006,22.832
			h-15.864l-22.411-22.412h-16.62v22.412h-11.583V610.865z M647.435,638.313c7.219,0,11.583-3.357,11.583-8.729
			c0-5.54-4.364-8.897-11.583-8.897h-29.547v17.627H647.435z"/>
	</g>
	<g>
		<defs>
			<rect id="SVGID_1_" x="-182" y="-321" width="130" height="130"/>
		</defs>
		<clipPath id="SVGID_2_">
			<use xlink:href="#SVGID_1_"  overflow="visible"/>
		</clipPath>
		<g clip-path="url(#SVGID_2_)">
			<defs>
				<rect id="SVGID_3_" x="-182" y="-321" width="130" height="130"/>
			</defs>
			<clipPath id="SVGID_4_">
				<use xlink:href="#SVGID_3_"  overflow="visible"/>
			</clipPath>
			<rect x="-187" y="-326" clip-path="url(#SVGID_4_)" fill="#F1FFFF" width="140" height="140"/>
		</g>
	</g>
	<g>
		<defs>
			<rect id="SVGID_5_" x="-182" y="251" width="130" height="130"/>
		</defs>
		<clipPath id="SVGID_6_">
			<use xlink:href="#SVGID_5_"  overflow="visible"/>
		</clipPath>
		<g clip-path="url(#SVGID_6_)">
			<defs>
				<rect id="SVGID_7_" x="-182" y="251" width="130" height="130"/>
			</defs>
			<clipPath id="SVGID_8_">
				<use xlink:href="#SVGID_7_"  overflow="visible"/>
			</clipPath>
			<rect x="-187" y="246" clip-path="url(#SVGID_8_)" fill="#14E2AC" width="140" height="140"/>
		</g>
	</g>
	<g>
		<defs>
			<rect id="SVGID_9_" x="-182" y="-135" width="130" height="130"/>
		</defs>
		<clipPath id="SVGID_10_">
			<use xlink:href="#SVGID_9_"  overflow="visible"/>
		</clipPath>
		<g clip-path="url(#SVGID_10_)">
			<defs>
				<rect id="SVGID_11_" x="-182" y="-135" width="130" height="130"/>
			</defs>
			<clipPath id="SVGID_12_">
				<use xlink:href="#SVGID_11_"  overflow="visible"/>
			</clipPath>
			<rect x="-187" y="-140" clip-path="url(#SVGID_12_)" fill="#07446B" width="140" height="140"/>
		</g>
	</g>
	<g>
		<defs>
			<rect id="SVGID_13_" x="-182" y="58" width="130" height="130"/>
		</defs>
		<clipPath id="SVGID_14_">
			<use xlink:href="#SVGID_13_"  overflow="visible"/>
		</clipPath>
		<g clip-path="url(#SVGID_14_)">
			<defs>
				<rect id="SVGID_15_" x="-182" y="58" width="130" height="130"/>
			</defs>
			<clipPath id="SVGID_16_">
				<use xlink:href="#SVGID_15_"  overflow="visible"/>
			</clipPath>
			<rect x="-187" y="53" clip-path="url(#SVGID_16_)" fill="#FFEBDF" width="140" height="140"/>
		</g>
	</g>
</g>
<g id="Layer_2">
	<g>
		<polygon fill="#14E2AC" points="181.169,127.188 181.169,117.235 133.591,144.705 94.802,122.311 94.802,77.524 142.59,49.933 
			134.017,44.93 86.183,72.547 86.183,127.288 133.591,154.659 		"/>
		<polygon fill="#14E2AC" points="103.423,117.334 133.591,134.753 181.169,107.283 181.169,97.331 133.591,124.8 112.042,112.359 
			112.042,87.476 159.736,59.94 151.164,54.937 103.423,82.5 		"/>
		<polygon fill="#14E2AC" points="176.882,69.946 168.31,64.943 120.66,92.453 120.66,107.383 133.591,114.847 181.169,87.377 
			181.169,77.423 133.591,104.894 129.279,102.405 129.279,97.43 		"/>
	</g>
	<g>
		<polygon fill="#FFFFFF" points="181.169,395.763 181.169,385.811 133.591,413.28 94.802,390.887 94.802,346.099 142.59,318.509 
			134.017,313.506 86.183,341.122 86.183,395.863 133.591,423.234 		"/>
		<polygon fill="#FFFFFF" points="103.423,385.91 133.591,403.328 181.169,375.859 181.169,365.906 133.591,393.376 
			112.042,380.934 112.042,356.052 159.736,328.516 151.164,323.513 103.423,351.076 		"/>
		<polygon fill="#FFFFFF" points="176.882,338.521 168.31,333.519 120.66,361.028 120.66,375.959 133.591,383.422 181.169,355.953 
			181.169,345.999 133.591,373.47 129.279,370.981 129.279,366.005 		"/>
	</g>
	<g>
		<polygon points="181.169,667.763 181.169,657.811 133.591,685.28 94.802,662.887 94.802,618.099 142.59,590.509 134.017,585.506 
			86.183,613.122 86.183,667.863 133.591,695.234 		"/>
		<polygon points="103.423,657.91 133.591,675.328 181.169,647.859 181.169,637.906 133.591,665.376 112.042,652.934 
			112.042,628.052 159.736,600.516 151.164,595.513 103.423,623.076 		"/>
		<polygon points="176.882,610.521 168.31,605.519 120.66,633.028 120.66,647.959 133.591,655.422 181.169,627.953 181.169,617.999 
			133.591,645.47 129.279,642.981 129.279,638.005 		"/>
	</g>
</g>
</svg>
