<svg width="107" height="94" viewBox="0 0 107 94" fill="none" xmlns="http://www.w3.org/2000/svg">
<path d="M106.297 83.8436L79.6046 30.4588C78.5836 28.4235 76.6017 27.0421 74.3395 26.8086C72.084 26.5483 69.8485 27.5026 68.4271 29.2709L45.5517 57.8585L30.624 47.9089C29.1025 46.9013 27.2274 46.5476 25.459 46.948C23.6773 47.3484 22.1358 48.4628 21.2015 50.0243L1.18223 83.3898C-0.0589674 85.4518 -0.0856598 88.0143 1.09548 90.1163C2.27662 92.2117 4.49876 93.4996 6.90108 93.4996H100.325C102.64 93.4996 104.782 92.2984 106.003 90.3298C107.225 88.3613 107.325 85.9056 106.297 83.8436Z" fill="#F0F1F3"/>
<path d="M40.2661 26.7686C47.637 26.7686 53.6123 20.7933 53.6123 13.4224C53.6123 6.05147 47.637 0.0761719 40.2661 0.0761719C32.8952 0.0761719 26.9199 6.05147 26.9199 13.4224C26.9199 20.7933 32.8952 26.7686 40.2661 26.7686Z" fill="#F0F1F3"/>
</svg>
